<?xml version="1.0" standalone="no"?>
<!DOCTYPE svg PUBLIC "-//W3C//DTD SVG 20010904//EN"
 "http://www.w3.org/TR/2001/REC-SVG-20010904/DTD/svg10.dtd">
<svg version="1.0" xmlns="http://www.w3.org/2000/svg"
 width="1438.000000pt" height="1440.000000pt" viewBox="0 0 1438.000000 1440.000000"
 preserveAspectRatio="xMidYMid meet">

<g transform="translate(0.000000,1440.000000) scale(0.100000,-0.100000)"
fill="#000000" stroke="none">
<path d="M6987 14366 c-15 -18 -43 -50 -62 -70 -19 -21 -35 -41 -35 -46 0 -5
-18 -28 -41 -52 -22 -23 -48 -55 -57 -70 -9 -16 -20 -28 -24 -28 -5 0 -17 -14
-27 -31 -10 -17 -39 -52 -63 -77 -24 -26 -55 -63 -68 -82 -14 -19 -32 -42 -40
-51 -8 -10 -29 -32 -46 -51 -17 -19 -35 -41 -40 -50 -8 -15 -77 -97 -131 -156
-13 -14 -23 -29 -23 -33 0 -4 -10 -19 -22 -31 -43 -44 -103 -113 -128 -147
-14 -18 -47 -57 -73 -86 -26 -30 -61 -71 -76 -92 -16 -21 -37 -47 -47 -58 -11
-11 -37 -42 -59 -70 -22 -27 -54 -66 -71 -85 -18 -19 -51 -60 -75 -90 -24 -30
-49 -61 -57 -69 -7 -8 -39 -46 -69 -85 -31 -39 -64 -78 -72 -87 -9 -9 -34 -40
-56 -70 -22 -29 -58 -73 -81 -98 -22 -25 -47 -54 -55 -64 -48 -62 -43 -61
-209 -31 -41 8 -127 23 -190 35 -63 11 -119 24 -125 28 -5 5 -38 11 -72 14
-34 4 -88 13 -120 21 -32 9 -101 23 -153 32 -52 9 -129 22 -170 29 -41 8 -111
19 -155 26 -44 6 -114 18 -155 26 -41 8 -115 20 -165 28 -49 7 -121 20 -160
28 -186 40 -461 93 -550 107 -38 6 -83 15 -100 20 -16 5 -93 18 -170 30 -211
31 -268 41 -290 50 -11 5 -57 14 -103 21 -45 6 -85 15 -88 20 -3 5 -16 9 -30
9 -30 0 -34 -35 -4 -43 19 -5 20 -14 20 -139 1 -181 9 -1153 16 -2003 9 -909
10 -855 -23 -882 -15 -12 -61 -39 -103 -60 -41 -21 -77 -40 -80 -43 -11 -11
-48 -32 -107 -60 -34 -17 -65 -35 -68 -41 -4 -5 -28 -20 -53 -33 -88 -43 -167
-87 -183 -102 -8 -7 -44 -28 -80 -46 -35 -17 -66 -34 -69 -37 -3 -3 -32 -20
-65 -36 -33 -17 -77 -42 -99 -57 -21 -16 -45 -28 -51 -28 -7 0 -18 -6 -24 -14
-7 -8 -41 -28 -76 -45 -35 -17 -67 -36 -70 -41 -4 -6 -37 -26 -73 -45 -113
-59 -172 -92 -190 -108 -9 -8 -28 -18 -42 -22 -14 -4 -43 -20 -65 -34 -22 -14
-64 -38 -94 -54 -29 -16 -74 -42 -99 -58 -25 -16 -52 -29 -59 -29 -7 0 -13 -3
-13 -7 0 -5 -30 -23 -68 -41 -37 -19 -85 -47 -107 -62 -22 -16 -51 -32 -65
-35 -14 -4 -33 -13 -42 -22 -19 -17 -86 -55 -140 -80 -21 -10 -38 -21 -38 -25
0 -5 -8 -8 -17 -8 -10 0 -31 -12 -48 -26 -16 -14 -47 -33 -67 -41 -36 -14 -38
-18 -38 -60 0 -42 1 -45 23 -38 12 4 34 9 50 12 15 3 30 9 33 14 3 5 18 9 33
9 15 0 31 3 35 7 3 4 12 8 19 10 55 13 158 36 185 40 18 3 35 9 38 14 3 5 16
9 30 9 13 0 24 4 24 9 0 8 41 18 90 22 8 1 20 5 25 9 6 4 34 11 62 15 29 4 55
11 59 16 3 5 18 9 33 9 15 0 31 3 35 7 7 7 57 20 178 46 31 7 60 15 64 20 4 4
20 7 35 7 15 0 31 5 34 10 3 6 17 10 30 10 13 0 26 4 29 9 4 5 29 12 56 16 27
4 52 11 55 15 3 5 31 12 63 16 31 4 59 10 62 13 3 4 28 12 55 18 28 6 68 17
90 23 22 6 52 14 67 17 16 3 28 9 28 13 0 4 27 10 60 14 33 4 62 11 64 15 3 5
29 11 57 15 28 4 58 11 67 16 28 14 123 40 146 40 18 0 144 36 211 60 25 9
107 30 162 41 23 4 81 20 130 35 95 28 123 35 223 58 98 22 153 37 175 46 11
5 54 18 95 29 41 11 102 27 135 36 33 9 78 20 100 25 22 5 58 15 80 22 35 11
40 17 43 47 2 18 -1 38 -7 44 -6 6 -11 23 -11 37 0 14 -4 30 -8 36 -5 5 -14
29 -21 54 -7 25 -16 59 -21 75 -9 27 -34 134 -46 195 -3 14 -9 34 -14 45 -14
33 -50 183 -50 210 0 14 -4 25 -10 25 -5 0 -10 11 -10 24 0 14 -4 28 -10 31
-5 3 -10 19 -10 35 0 16 -4 31 -9 35 -5 3 -13 30 -16 60 -4 30 -11 55 -16 55
-4 0 -11 27 -15 60 -4 33 -11 63 -15 66 -5 3 -9 14 -9 24 0 11 -11 53 -25 94
-14 41 -25 84 -25 95 0 11 -4 22 -9 25 -5 4 -12 30 -16 59 -4 28 -11 57 -15
62 -4 6 -11 32 -15 59 -3 27 -10 56 -15 65 -4 9 -14 36 -21 61 -7 25 -16 50
-20 55 -4 6 -9 33 -12 60 -7 67 -18 119 -27 125 -3 3 -15 41 -25 85 -10 44
-21 85 -24 90 -3 6 -11 37 -17 70 -6 33 -23 94 -37 135 -14 41 -32 104 -40
140 -20 88 -48 201 -57 225 -21 58 -41 127 -54 190 -9 39 -25 102 -36 140 -11
39 -25 90 -31 115 -34 137 -53 206 -61 214 -4 6 -8 25 -8 43 0 18 -4 33 -10
33 -5 0 -9 3 -8 8 2 10 -12 81 -22 114 -11 34 -3 41 29 24 112 -56 281 -136
290 -136 15 0 125 -53 129 -62 2 -5 9 -8 16 -8 6 0 41 -15 76 -34 36 -18 76
-37 90 -41 14 -4 90 -39 170 -77 80 -39 154 -73 165 -78 11 -4 84 -39 162 -79
79 -39 147 -71 153 -71 6 0 74 -31 153 -69 78 -38 161 -75 185 -82 23 -7 42
-16 42 -21 0 -4 8 -8 19 -8 10 0 24 -6 30 -14 7 -8 23 -17 36 -20 14 -4 25
-11 25 -16 0 -6 11 -10 25 -10 14 0 25 -4 25 -10 0 -5 16 -12 35 -16 19 -3 35
-9 35 -13 0 -4 17 -13 38 -20 49 -17 226 -104 230 -113 2 -4 19 -10 38 -14 19
-3 34 -10 34 -15 0 -5 6 -9 14 -9 8 0 38 -12 68 -26 29 -15 69 -33 88 -42 19
-8 42 -19 50 -23 51 -29 181 -89 192 -89 7 -1 31 -12 53 -25 22 -14 47 -27 55
-31 8 -3 27 -12 42 -20 14 -8 33 -14 42 -14 9 0 16 -4 16 -10 0 -5 7 -10 15
-10 8 0 23 -4 33 -9 44 -24 150 -71 159 -71 6 0 16 -7 23 -15 7 -8 19 -15 27
-15 8 0 21 -7 29 -15 9 -8 24 -15 35 -15 10 0 19 -4 19 -10 0 -5 8 -10 18 -10
10 0 23 -5 29 -11 20 -20 61 -2 68 31 4 16 10 30 14 30 3 0 13 20 20 46 7 25
20 51 27 59 8 7 14 19 14 25 0 7 6 24 14 38 66 130 86 175 86 191 0 11 7 26
15 35 8 8 15 18 15 23 0 4 29 66 65 136 36 71 65 134 65 140 0 6 34 80 75 164
41 83 75 154 75 158 0 3 18 43 40 90 22 47 40 86 40 88 0 3 17 35 38 73 20 38
43 87 50 109 18 53 55 125 64 125 5 0 8 11 8 25 0 14 5 25 10 25 6 0 10 8 10
19 0 10 7 24 15 31 8 7 15 20 15 29 0 9 12 39 25 66 14 28 25 57 25 66 0 9 7
19 15 23 8 3 15 13 15 21 0 9 7 23 15 31 8 9 15 24 15 35 0 10 5 19 10 19 6 0
10 5 10 11 0 6 6 25 14 42 8 18 22 53 31 80 10 26 22 47 26 47 5 0 9 6 9 14 0
8 8 29 17 48 9 18 22 44 29 58 7 14 24 47 38 74 14 27 26 54 26 60 0 6 18 47
40 90 22 43 40 85 40 92 0 8 5 14 10 14 6 0 10 9 10 19 0 11 7 26 15 35 8 8
15 19 15 25 0 15 34 85 43 89 4 2 7 12 7 22 0 20 27 75 48 98 6 7 12 22 12 31
0 10 7 24 15 31 8 7 15 21 15 30 0 10 4 20 8 22 5 2 12 15 16 31 l6 27 -63 0
c-60 0 -65 -2 -90 -34z"/>
<path d="M7410 14384 c0 -8 16 -45 35 -81 19 -36 40 -83 45 -105 6 -21 15 -38
20 -38 6 0 10 -7 10 -15 0 -8 17 -49 39 -92 66 -133 121 -251 121 -261 0 -5 6
-15 14 -21 8 -7 17 -27 20 -45 3 -18 20 -54 36 -80 17 -25 30 -52 30 -59 0 -7
16 -43 35 -82 19 -38 35 -73 35 -77 0 -4 14 -30 30 -58 17 -28 30 -55 30 -61
0 -6 18 -47 40 -93 22 -45 40 -88 40 -94 0 -7 4 -12 10 -12 5 0 14 -18 20 -40
6 -23 23 -62 38 -88 15 -26 41 -78 57 -117 16 -38 44 -98 62 -132 18 -34 40
-84 49 -110 9 -26 22 -55 28 -63 7 -8 27 -49 45 -90 19 -41 55 -120 81 -175
82 -171 100 -212 100 -223 0 -7 5 -12 10 -12 6 0 10 -7 10 -15 0 -8 4 -23 9
-33 12 -22 129 -269 143 -302 25 -58 34 -77 60 -123 16 -26 28 -53 28 -59 0
-23 56 -128 71 -133 8 -3 43 8 77 25 34 16 66 30 71 30 5 0 47 19 93 43 46 24
115 56 153 72 39 16 90 41 116 56 25 14 63 32 85 39 21 7 57 23 79 35 22 12
72 35 110 51 39 16 101 46 139 66 38 21 74 38 80 38 6 0 65 27 131 60 66 33
126 60 133 60 7 0 30 11 52 25 22 14 42 25 45 25 12 0 171 74 415 194 64 31
120 56 125 56 6 0 63 27 128 60 66 33 125 60 133 60 7 0 29 9 49 20 19 11 51
29 70 40 20 11 41 20 48 20 7 0 66 27 132 60 66 33 126 60 133 60 8 0 26 8 40
18 15 10 43 25 62 32 19 8 37 17 40 20 7 9 76 40 88 40 6 0 53 21 104 46 51
25 110 55 131 65 22 10 45 19 53 19 8 0 14 3 14 8 0 8 49 32 67 32 7 0 13 5
13 10 0 6 7 10 15 10 9 0 29 7 46 15 16 9 33 13 38 11 9 -6 -6 -94 -19 -111
-5 -5 -11 -32 -15 -60 -4 -27 -11 -54 -15 -60 -4 -5 -11 -26 -14 -45 -15 -80
-40 -177 -52 -207 -8 -17 -14 -43 -14 -58 0 -14 -6 -38 -14 -53 -7 -15 -16
-48 -20 -74 -4 -26 -11 -50 -15 -53 -5 -2 -11 -27 -15 -54 -4 -28 -11 -53 -16
-56 -5 -3 -12 -27 -16 -53 -3 -26 -12 -58 -19 -72 -7 -14 -21 -68 -30 -120 -9
-52 -23 -107 -31 -122 -8 -15 -14 -40 -14 -55 0 -16 -6 -37 -14 -48 -7 -11
-17 -44 -21 -72 -4 -29 -10 -53 -15 -53 -4 0 -11 -21 -15 -47 -3 -27 -13 -68
-20 -93 -33 -108 -45 -154 -45 -177 0 -13 -7 -31 -15 -39 -8 -9 -15 -32 -15
-52 0 -20 -7 -50 -15 -66 -8 -15 -15 -43 -15 -60 0 -17 -6 -41 -14 -52 -8 -11
-17 -42 -21 -69 -4 -28 -14 -59 -21 -70 -8 -11 -14 -33 -14 -50 -1 -16 -7 -41
-15 -55 -8 -14 -14 -36 -15 -50 0 -35 -30 -160 -45 -190 -7 -14 -16 -49 -20
-77 -4 -29 -11 -53 -16 -53 -5 0 -9 -13 -9 -28 0 -15 -9 -53 -20 -85 -11 -31
-20 -67 -20 -79 0 -13 -7 -32 -15 -42 -8 -11 -15 -31 -15 -46 0 -14 -9 -50
-19 -80 -11 -30 -25 -91 -32 -135 -7 -44 -18 -87 -26 -96 -7 -8 -13 -29 -13
-45 0 -16 -7 -42 -15 -58 -8 -16 -18 -47 -21 -70 -4 -22 -11 -46 -16 -53 -5
-7 -8 -22 -6 -35 3 -23 41 -35 163 -55 22 -3 49 -12 60 -18 11 -7 41 -16 67
-19 26 -4 50 -11 53 -16 3 -4 29 -11 58 -15 28 -4 64 -14 79 -21 15 -8 43 -14
62 -14 19 0 36 -4 38 -10 2 -5 27 -14 57 -20 30 -5 59 -14 65 -19 12 -10 161
-41 195 -41 12 0 32 -6 44 -14 12 -8 42 -17 67 -21 25 -4 54 -14 65 -21 11 -8
33 -14 50 -14 16 -1 41 -7 55 -15 14 -8 41 -14 60 -15 20 0 44 -6 55 -14 11
-7 42 -16 69 -20 28 -3 52 -10 55 -14 6 -7 59 -21 176 -44 28 -5 55 -13 60
-18 6 -4 33 -11 60 -15 28 -4 53 -12 56 -17 3 -5 29 -12 57 -17 28 -4 57 -13
64 -18 7 -6 37 -14 66 -18 28 -4 52 -11 52 -15 0 -5 21 -12 48 -15 26 -3 56
-11 66 -17 11 -5 42 -14 70 -19 69 -11 155 -33 189 -47 16 -7 43 -12 61 -12
18 0 41 -7 52 -15 10 -8 35 -15 54 -15 20 0 44 -6 55 -14 11 -7 40 -16 65 -20
24 -4 49 -11 56 -17 7 -5 34 -14 61 -19 26 -4 78 -14 116 -21 37 -6 67 -15 67
-19 0 -4 21 -11 47 -15 26 -4 60 -13 75 -21 15 -8 41 -14 58 -14 l30 0 0 61
c0 71 -7 81 -92 119 -29 14 -55 27 -58 30 -14 15 -71 50 -80 50 -5 0 -10 5
-10 10 0 6 -9 10 -20 10 -11 0 -20 4 -20 8 0 5 -21 18 -47 30 -59 26 -124 63
-141 80 -7 6 -19 12 -25 12 -7 0 -23 10 -37 23 -14 12 -43 28 -64 36 -22 7
-58 27 -79 42 -22 16 -46 29 -54 29 -7 0 -13 5 -13 10 0 6 -9 10 -20 10 -11 0
-20 5 -20 10 0 6 -10 15 -22 20 -13 6 -30 14 -38 20 -8 5 -26 15 -40 20 -14 6
-38 19 -55 30 -16 11 -37 23 -45 27 -8 3 -17 9 -20 13 -10 12 -60 40 -71 40
-7 0 -27 11 -45 25 -18 14 -40 25 -48 25 -9 0 -16 4 -16 9 0 5 -11 12 -25 15
-14 4 -25 11 -25 16 0 6 -6 10 -14 10 -8 0 -16 7 -20 15 -3 8 -14 15 -24 15
-11 0 -25 6 -31 14 -7 8 -26 18 -42 21 -17 4 -33 13 -36 21 -3 8 -13 14 -23
14 -10 0 -23 7 -30 15 -7 8 -18 15 -25 15 -8 0 -15 3 -17 8 -2 4 -21 16 -43
27 -22 10 -50 27 -63 36 -13 10 -36 21 -52 24 -17 4 -30 11 -30 16 0 5 -5 9
-11 9 -6 0 -25 11 -42 23 -18 13 -61 39 -97 57 -36 18 -67 35 -70 39 -3 3 -22
15 -42 25 -21 11 -38 23 -38 28 0 4 -9 8 -19 8 -11 0 -26 7 -35 15 -8 8 -18
15 -22 15 -4 0 -15 6 -23 13 -9 8 -32 20 -51 27 -19 7 -49 23 -65 35 l-30 22
3 339 c4 390 4 389 2 429 -3 49 9 1812 14 2053 2 122 1 222 -2 222 -4 0 -14
-15 -22 -33 -12 -26 -22 -33 -50 -35 -19 -1 -44 -7 -55 -12 -22 -10 -70 -18
-160 -26 -33 -3 -69 -9 -80 -13 -23 -10 -121 -30 -180 -37 -22 -3 -47 -8 -55
-11 -8 -3 -26 -7 -40 -9 -157 -22 -196 -29 -201 -37 -4 -5 -16 -6 -28 -2 -12
4 -27 2 -34 -3 -13 -10 -18 -11 -187 -37 -58 -9 -121 -20 -140 -25 -48 -11
-140 -29 -235 -46 -44 -7 -100 -18 -125 -23 -25 -5 -80 -12 -122 -16 -43 -4
-78 -11 -78 -16 0 -5 -18 -9 -40 -9 -22 0 -40 -4 -40 -9 0 -4 -33 -12 -72 -16
-40 -3 -77 -10 -83 -15 -5 -4 -53 -13 -105 -19 -93 -11 -135 -18 -135 -21 0
-3 -131 -28 -210 -41 -38 -6 -162 -29 -275 -50 -113 -22 -213 -39 -223 -39
-20 0 -92 75 -108 113 -6 15 -18 27 -25 27 -8 0 -14 5 -14 11 0 6 -6 16 -12
24 -7 7 -26 30 -43 50 -16 21 -43 52 -60 70 -16 18 -43 50 -60 71 -40 52 -108
128 -117 132 -5 2 -8 10 -8 17 0 14 -32 55 -87 113 -18 19 -33 36 -33 39 0 6
-71 93 -105 128 -24 25 -81 94 -125 150 -17 22 -46 58 -65 80 -76 91 -115 140
-115 147 0 5 -7 8 -15 8 -9 0 -21 12 -28 27 -6 15 -29 45 -51 68 -21 22 -52
60 -69 85 -17 25 -45 60 -62 78 -16 18 -42 47 -57 63 -16 17 -28 33 -28 36 0
2 -16 20 -35 39 -19 18 -35 37 -35 42 0 5 -17 27 -37 49 -50 52 -73 80 -103
123 -13 19 -34 45 -45 57 -11 11 -36 40 -55 63 -19 23 -41 48 -48 56 -20 21
-142 20 -142 -2z"/>
<path d="M0 8237 c1 -46 5 -57 38 -93 40 -44 115 -131 147 -172 11 -13 34 -39
50 -57 59 -62 95 -105 95 -111 0 -3 16 -21 35 -40 19 -18 35 -38 35 -44 0 -6
15 -25 33 -43 46 -48 218 -244 236 -270 8 -12 25 -31 38 -42 13 -11 23 -24 23
-28 0 -16 188 -227 202 -227 4 0 8 -6 8 -12 0 -7 11 -23 24 -35 13 -12 38 -43
57 -68 19 -26 52 -66 74 -90 22 -24 54 -60 70 -81 30 -36 86 -99 135 -152 14
-15 47 -56 75 -92 61 -80 90 -114 133 -156 17 -18 32 -35 32 -38 0 -7 25 -37
65 -80 17 -17 59 -67 95 -111 36 -44 71 -86 78 -93 6 -7 12 -17 12 -20 0 -7
-46 -122 -70 -177 -5 -11 -16 -47 -25 -80 -9 -33 -20 -64 -24 -70 -4 -5 -22
-50 -40 -100 -18 -49 -42 -108 -52 -131 -10 -23 -19 -47 -19 -55 0 -8 -7 -22
-15 -33 -7 -10 -17 -42 -21 -72 -3 -30 -10 -54 -14 -54 -4 0 -13 -15 -20 -32
-6 -18 -18 -45 -26 -60 -8 -14 -14 -36 -14 -47 0 -12 -4 -21 -10 -21 -5 0 -10
-10 -10 -22 0 -13 -7 -36 -15 -52 -8 -15 -15 -34 -15 -42 0 -12 -20 -64 -41
-105 -4 -9 -11 -33 -14 -53 -4 -20 -11 -39 -16 -42 -5 -3 -9 -16 -9 -28 0 -13
-7 -29 -15 -36 -8 -7 -15 -20 -15 -29 0 -10 -7 -26 -15 -37 -8 -10 -15 -27
-15 -37 0 -11 -6 -31 -14 -45 -8 -15 -19 -47 -26 -72 -6 -25 -18 -58 -26 -75
-24 -52 -66 -169 -71 -200 -3 -16 -12 -34 -19 -38 -8 -4 -14 -16 -14 -25 0 -9
-6 -29 -14 -43 -7 -15 -19 -51 -26 -80 -7 -30 -16 -61 -21 -69 -5 -8 -12 -22
-15 -30 -3 -8 -12 -28 -19 -45 -8 -16 -17 -42 -21 -57 -3 -16 -10 -28 -15 -28
-5 0 -9 -12 -9 -26 0 -14 -6 -38 -14 -52 -8 -15 -23 -55 -32 -89 -10 -35 -21
-63 -26 -63 -4 0 -8 -10 -8 -22 -1 -13 -7 -34 -15 -48 -8 -14 -14 -35 -15 -46
0 -12 -7 -27 -15 -34 -8 -7 -15 -23 -15 -36 0 -12 -7 -29 -15 -38 -8 -8 -15
-21 -15 -28 0 -7 -9 -30 -20 -50 -20 -37 -18 -74 3 -61 16 10 91 4 161 -12 34
-7 106 -19 161 -26 55 -6 105 -15 110 -20 6 -4 60 -13 120 -19 61 -6 128 -17
150 -25 22 -7 87 -19 145 -25 58 -6 110 -16 116 -21 6 -4 55 -14 110 -20 54
-6 118 -18 142 -25 24 -8 89 -19 145 -25 56 -6 107 -15 114 -21 6 -5 66 -16
133 -23 67 -8 124 -16 128 -19 4 -2 52 -9 107 -16 55 -6 116 -17 135 -24 19
-8 87 -19 150 -26 63 -7 123 -16 133 -22 10 -5 75 -16 144 -23 69 -8 130 -18
137 -23 6 -5 59 -15 119 -21 59 -7 124 -18 145 -25 20 -7 66 -16 102 -20 36
-4 70 -10 75 -14 6 -4 30 -65 54 -137 24 -71 47 -134 51 -140 4 -5 11 -26 14
-45 7 -34 18 -65 37 -102 5 -10 9 -27 9 -38 0 -11 5 -20 10 -20 6 0 10 -7 10
-15 0 -8 4 -24 10 -35 6 -11 15 -29 20 -40 5 -11 10 -32 10 -47 0 -16 11 -50
23 -78 13 -27 32 -77 42 -110 11 -33 25 -71 32 -85 7 -14 13 -35 13 -47 0 -12
5 -25 10 -28 6 -3 10 -16 10 -29 0 -12 4 -26 9 -32 5 -5 14 -26 21 -46 6 -21
15 -38 19 -38 5 0 11 -19 14 -43 3 -24 17 -68 31 -98 14 -29 26 -62 26 -72 0
-9 4 -25 9 -35 21 -40 41 -91 41 -106 0 -9 4 -24 9 -34 5 -9 13 -28 18 -42 6
-14 15 -36 20 -50 15 -38 32 -86 64 -185 16 -49 38 -107 49 -128 11 -22 20
-47 20 -57 0 -11 5 -22 10 -25 6 -3 10 -16 10 -28 0 -12 7 -35 15 -51 8 -15
15 -33 15 -40 0 -6 13 -45 29 -86 16 -41 37 -102 46 -135 10 -33 21 -64 25
-70 4 -5 15 -35 25 -65 10 -30 23 -66 30 -80 7 -14 19 -51 26 -83 8 -31 17
-57 20 -57 4 0 13 -20 20 -45 13 -44 14 -45 57 -45 33 0 56 8 90 31 25 17 57
35 69 40 13 5 50 26 81 48 31 21 68 42 82 46 21 6 103 58 120 75 3 3 32 18 64
35 32 16 88 48 123 71 35 23 75 45 89 48 13 4 24 11 24 16 0 6 7 10 15 10 8 0
15 5 15 10 0 6 5 10 11 10 6 0 30 14 54 30 24 17 47 30 52 30 5 0 31 15 59 33
28 17 59 37 70 44 10 7 44 25 74 40 30 15 57 30 60 33 21 21 81 60 94 60 8 0
27 10 43 23 15 12 42 29 58 37 17 8 37 19 45 26 8 6 44 26 80 45 36 19 71 39
77 46 7 6 42 26 78 44 36 19 65 37 65 41 0 5 5 8 11 8 6 0 25 11 43 25 18 14
40 25 48 25 9 0 21 7 28 15 7 8 19 15 26 15 8 0 14 5 14 10 0 6 6 10 14 10 8
0 27 11 43 23 15 13 54 36 85 50 31 15 59 31 63 36 3 6 18 16 33 24 113 59
139 74 154 88 10 8 39 26 65 39 26 13 81 44 123 69 42 25 93 55 113 65 l37 19
54 -26 c30 -15 59 -27 64 -27 6 0 12 -7 16 -15 3 -8 12 -15 21 -15 8 0 15 -4
15 -8 0 -5 20 -17 45 -28 25 -10 45 -21 45 -25 0 -3 29 -21 65 -40 98 -51 104
-55 129 -75 12 -11 40 -28 62 -38 21 -11 53 -30 71 -43 17 -13 39 -23 47 -23
9 0 16 -4 16 -10 0 -5 9 -10 19 -10 10 0 21 -7 25 -15 3 -8 12 -15 21 -15 8 0
15 -4 15 -9 0 -5 10 -13 22 -17 13 -4 25 -9 28 -13 10 -12 50 -31 65 -31 8 0
15 -4 15 -9 0 -5 20 -20 45 -32 25 -12 45 -26 45 -31 0 -4 9 -8 20 -8 11 0 20
-4 20 -9 0 -4 39 -28 88 -52 48 -24 91 -49 95 -56 4 -7 15 -13 22 -13 8 0 15
-4 15 -8 0 -5 20 -17 45 -28 25 -10 45 -21 45 -26 0 -4 19 -16 43 -27 53 -25
118 -62 134 -78 7 -6 37 -23 65 -38 29 -15 67 -35 83 -46 17 -11 38 -22 48
-25 9 -4 17 -10 17 -15 0 -5 5 -9 11 -9 6 0 34 -16 63 -35 29 -19 60 -35 69
-35 9 0 18 -4 21 -9 7 -10 173 -114 254 -157 61 -33 70 -39 136 -82 28 -18 55
-32 62 -32 6 0 22 -9 35 -19 14 -10 47 -31 74 -46 28 -15 65 -39 83 -52 18
-13 47 -27 65 -30 l32 -5 14 61 c7 34 17 64 21 66 4 3 11 21 15 41 3 20 10 44
15 53 4 9 16 36 25 61 9 25 23 59 30 75 8 17 21 57 30 90 20 71 46 146 56 160
4 6 12 26 17 45 10 33 55 158 69 190 3 8 21 60 39 115 17 55 44 132 59 170 49
128 86 229 106 295 11 36 24 74 29 85 11 23 37 96 51 143 6 17 14 32 19 32 6
0 10 12 10 28 1 15 7 38 15 52 8 14 14 37 15 52 0 15 5 30 10 33 6 3 10 17 10
29 0 13 6 29 14 35 7 6 16 29 20 51 3 22 11 40 16 40 6 0 10 13 10 29 0 16 7
34 15 41 8 7 15 25 15 40 0 16 6 41 14 57 27 55 43 99 56 153 7 30 18 69 26
85 7 17 23 57 35 90 13 33 27 64 31 70 4 5 8 19 8 31 0 13 7 29 15 38 8 8 15
27 15 43 0 15 7 37 15 47 8 11 15 28 15 38 0 10 5 28 12 41 6 12 14 29 18 37
5 10 35 19 91 26 46 6 85 12 87 14 1 1 14 4 30 6 78 9 179 25 192 31 33 13
109 25 185 30 44 3 85 9 90 13 6 5 20 9 30 9 11 -1 45 4 75 11 30 6 109 20
175 30 66 11 163 26 215 35 52 9 118 20 145 25 28 4 57 11 65 14 9 4 61 13
115 20 134 19 341 54 386 66 20 6 74 14 120 19 46 5 145 21 219 36 74 14 171
30 215 36 91 11 157 23 365 64 47 10 103 18 125 20 71 4 69 3 55 20 -7 8 -19
15 -26 15 -16 0 -74 113 -74 143 0 10 -7 35 -16 55 -20 46 -27 63 -55 137 -12
33 -26 64 -31 69 -4 6 -8 20 -8 32 0 18 -44 134 -71 186 -5 10 -9 25 -9 34 0
9 -6 30 -14 47 -7 18 -19 48 -26 67 -12 34 -44 108 -61 142 -5 10 -9 25 -9 34
0 9 -6 30 -14 47 -34 80 -78 196 -88 232 -10 39 -26 80 -54 139 -8 16 -14 37
-14 47 0 10 -4 20 -9 23 -5 4 -12 24 -16 46 -4 22 -11 40 -16 40 -5 0 -9 9 -9
20 0 11 -9 39 -19 63 -30 65 -52 120 -56 140 -6 28 -27 90 -36 109 -5 10 -9
25 -9 33 0 8 -4 15 -10 15 -5 0 -10 9 -10 19 0 11 -4 23 -10 26 -6 3 -10 14
-10 24 0 10 -7 32 -15 47 -8 16 -15 37 -15 46 0 10 -9 33 -20 53 -11 20 -20
42 -20 50 0 8 -4 15 -8 15 -5 0 -13 19 -19 43 -14 53 -52 166 -64 189 -5 10
-9 25 -9 33 0 8 -4 15 -10 15 -5 0 -10 11 -10 25 0 14 -4 25 -9 25 -6 0 -13
20 -17 45 -3 25 -10 48 -15 51 -5 3 -9 14 -9 25 0 10 -4 19 -10 19 -5 0 -10 9
-10 19 0 11 -4 22 -9 25 -4 3 -11 23 -15 45 -3 22 -14 44 -23 49 -16 9 -16 12
1 36 9 15 24 30 32 33 8 3 14 10 14 15 0 5 18 27 40 49 22 22 40 44 40 48 0 5
19 29 43 53 24 23 54 59 68 78 13 19 31 42 39 51 23 25 103 116 172 197 34 39
66 72 70 72 4 0 8 6 8 13 0 7 19 33 41 57 23 25 68 79 101 120 33 41 76 89 94
105 19 17 34 36 34 42 0 7 17 30 37 52 53 55 102 111 143 161 19 24 44 53 55
64 11 12 38 43 60 71 22 27 56 67 75 88 19 21 38 45 42 52 4 7 22 28 40 47 47
49 109 121 135 154 12 16 45 54 73 84 28 30 53 64 56 75 3 11 4 66 2 121 l-3
102 -100 -69 c-55 -38 -131 -90 -170 -116 -38 -25 -87 -61 -108 -80 -20 -18
-42 -33 -48 -33 -9 0 -76 -45 -89 -61 -3 -3 -38 -26 -77 -52 -40 -26 -73 -51
-73 -56 0 -5 -20 -19 -44 -31 -24 -11 -49 -27 -56 -35 -6 -7 -41 -33 -78 -57
-37 -23 -68 -46 -70 -50 -2 -5 -8 -8 -13 -8 -8 0 -35 -20 -64 -47 -8 -7 -21
-13 -29 -13 -9 0 -21 -9 -28 -20 -7 -11 -18 -20 -25 -20 -7 0 -13 -4 -13 -10
0 -5 -6 -10 -13 -10 -8 0 -22 -9 -32 -20 -10 -11 -22 -20 -27 -20 -5 0 -14 -4
-21 -10 -55 -45 -76 -60 -83 -60 -5 0 -25 -15 -44 -34 -20 -18 -46 -36 -58
-40 -12 -4 -22 -12 -22 -17 0 -5 -5 -9 -11 -9 -11 0 -92 -60 -97 -72 -2 -5
-10 -8 -17 -8 -8 0 -20 -6 -27 -13 -25 -24 -116 -87 -125 -87 -5 0 -20 -11
-33 -25 -13 -14 -29 -25 -35 -25 -6 0 -20 -8 -31 -18 -26 -24 -132 -102 -138
-102 -6 0 -36 -24 -60 -46 -6 -6 -33 -23 -59 -37 -26 -15 -58 -36 -70 -48 -12
-11 -39 -30 -59 -42 -21 -11 -38 -24 -38 -29 0 -4 -6 -8 -13 -8 -6 0 -25 -13
-40 -29 -15 -17 -38 -33 -50 -37 -12 -4 -49 -28 -82 -54 -33 -26 -73 -54 -90
-63 -16 -9 -48 -32 -70 -52 -22 -19 -45 -35 -52 -35 -7 0 -13 -5 -13 -11 0
-16 53 -99 63 -99 4 0 7 -4 7 -9 0 -13 129 -195 141 -199 5 -2 9 -12 9 -23 0
-10 5 -19 10 -19 6 0 10 -5 10 -10 0 -6 9 -21 21 -33 12 -12 32 -40 46 -62 14
-22 36 -51 48 -65 13 -14 33 -43 44 -65 12 -22 37 -58 56 -80 19 -22 42 -54
50 -72 9 -18 21 -38 28 -45 20 -21 91 -119 131 -178 50 -76 124 -182 140 -201
7 -8 33 -47 58 -85 24 -38 57 -82 71 -98 15 -16 27 -35 27 -42 0 -8 15 -29 34
-49 19 -19 32 -35 29 -35 -4 0 0 -8 8 -17 8 -10 23 -34 34 -53 10 -19 28 -45
40 -57 34 -37 42 -49 49 -70 4 -11 20 -35 36 -52 17 -17 27 -31 24 -31 -3 0 5
-13 18 -29 12 -15 29 -37 36 -47 7 -10 34 -50 62 -89 52 -74 138 -198 155
-224 6 -8 16 -21 23 -29 7 -8 21 -31 32 -52 10 -21 25 -40 33 -43 8 -3 24 -26
36 -52 12 -25 28 -48 36 -51 8 -4 15 -12 15 -19 0 -7 4 -15 8 -17 5 -1 32 -39
61 -83 30 -44 57 -82 61 -85 4 -3 31 -43 62 -90 30 -47 62 -91 71 -99 10 -7
17 -19 17 -25 0 -6 11 -23 25 -38 14 -15 25 -31 25 -35 0 -4 14 -24 30 -43 17
-19 33 -45 36 -57 4 -13 10 -23 15 -23 5 0 9 -9 9 -21 0 -15 -5 -19 -16 -15
-16 6 -268 30 -434 42 -52 3 -97 8 -100 9 -3 2 -46 6 -95 9 -50 4 -106 9 -125
11 -19 3 -93 10 -165 15 -71 6 -206 17 -300 25 -93 9 -201 18 -240 20 -38 3
-99 9 -135 15 -36 5 -126 14 -200 20 -344 27 -400 31 -470 36 -41 3 -142 11
-225 20 -82 8 -208 19 -280 24 -71 5 -146 12 -165 15 -19 2 -62 7 -95 9 -256
20 -299 24 -418 37 -106 11 -137 7 -137 -19 0 -9 -7 -91 -15 -182 -14 -164
-26 -292 -45 -517 -6 -65 -21 -244 -35 -398 -14 -154 -29 -329 -34 -390 -6
-60 -19 -213 -31 -340 -24 -267 -114 -1304 -136 -1575 -8 -102 -17 -191 -19
-197 -7 -22 -24 -15 -58 23 -18 20 -38 41 -44 48 -34 30 -211 206 -235 232
-14 16 -41 43 -60 61 -18 18 -38 38 -44 45 -6 7 -33 34 -60 59 -27 25 -61 58
-76 75 -14 16 -89 91 -165 166 -76 76 -180 179 -231 230 -51 51 -102 103 -115
114 -12 12 -44 45 -71 73 -27 28 -52 51 -56 51 -4 0 -10 9 -13 21 -3 11 -14
23 -25 26 -11 2 -25 16 -32 29 -8 13 -17 24 -20 24 -4 0 -61 54 -126 121 -66
66 -127 128 -138 137 -10 10 -43 42 -72 72 -66 68 -62 63 -104 102 -19 18 -47
47 -61 63 -14 17 -48 51 -75 76 -27 26 -54 53 -61 60 -6 8 -66 67 -132 133
-67 65 -121 122 -121 127 0 5 -7 9 -15 9 -8 0 -15 3 -15 8 -1 11 -67 82 -77
82 -4 0 -19 14 -32 30 -38 48 -225 230 -236 230 -13 0 -185 -163 -185 -176 -1
-5 -21 -25 -45 -44 -25 -19 -64 -58 -87 -87 -24 -29 -46 -52 -50 -53 -5 0
-1104 -1095 -1203 -1199 -129 -135 -1017 -1011 -1025 -1011 -6 0 -11 15 -11
33 -2 80 -7 153 -12 167 -7 19 -19 155 -17 199 0 18 -4 39 -11 47 -7 9 -9 32
-5 68 5 36 3 56 -4 61 -7 4 -9 21 -5 44 3 20 1 77 -5 126 -5 50 -12 139 -15
199 -3 60 -10 117 -16 127 -5 10 -9 36 -9 56 1 21 -3 81 -9 133 -6 52 -13 138
-16 190 -3 52 -9 136 -14 185 -5 50 -21 241 -36 425 -15 184 -30 344 -35 355
-8 17 -22 192 -35 420 -3 39 -16 185 -30 325 -14 140 -28 295 -31 345 -2 49
-8 93 -12 97 -5 5 -22 4 -38 -2 -16 -6 -110 -15 -209 -21 -99 -5 -198 -12
-220 -15 -62 -7 -437 -44 -460 -45 -114 -5 -445 -33 -460 -39 -16 -6 -275 -29
-345 -29 -20 -1 -141 -10 -215 -16 -33 -4 -85 -7 -115 -9 -30 -1 -62 -5 -70
-8 -12 -5 -241 -24 -325 -27 -11 -1 -81 -8 -155 -16 -74 -8 -158 -15 -187 -15
-28 1 -54 -4 -58 -9 -4 -7 -26 -9 -60 -5 -32 4 -60 3 -67 -3 -7 -6 -56 -11
-108 -11 -52 -1 -138 -7 -190 -13 -52 -6 -113 -12 -135 -14 -22 -1 -80 -8
-130 -13 -49 -6 -91 -9 -93 -7 -3 2 8 25 24 51 16 25 33 55 39 65 5 10 13 19
17 19 5 0 8 7 8 15 0 8 5 15 10 15 6 0 10 9 10 20 0 11 6 20 13 20 7 0 30 26
50 58 59 91 61 94 75 108 6 7 12 16 12 21 0 4 11 20 25 35 14 15 25 32 25 38
0 5 4 10 10 10 5 0 17 17 25 37 9 21 19 40 24 43 4 3 27 32 52 65 24 33 47 62
50 65 3 3 18 27 33 53 14 26 37 60 51 75 14 15 25 30 25 34 0 3 6 13 14 20 7
8 20 27 29 43 8 17 25 40 36 52 12 12 21 25 21 28 0 4 6 13 12 20 22 25 32 38
102 143 37 56 72 102 77 102 5 0 9 5 9 11 0 6 11 25 25 43 14 18 25 36 25 40
0 9 80 110 91 114 5 2 9 8 9 13 0 5 15 31 33 57 82 124 177 260 189 273 18 20
118 166 118 173 0 6 37 50 68 82 6 7 12 17 12 23 0 6 4 11 8 11 5 0 16 18 26
40 10 22 22 40 27 40 5 0 9 5 9 11 0 10 47 76 77 107 6 6 15 22 19 34 4 12 12
27 18 33 6 6 22 26 36 44 14 18 31 39 38 46 6 8 12 16 12 20 0 3 11 21 25 39
14 18 25 38 25 44 0 7 5 12 10 12 6 0 10 6 10 14 0 8 4 16 8 18 11 5 102 125
102 135 0 5 8 18 18 29 9 10 31 40 47 66 17 27 33 48 37 48 11 0 58 84 58 103
0 9 -14 20 -34 27 -19 6 -36 14 -38 18 -5 13 -86 72 -97 72 -6 0 -11 3 -11 8
0 4 -16 16 -35 26 -19 10 -42 26 -52 35 -10 9 -34 26 -53 38 -19 12 -44 30
-56 41 -11 11 -31 25 -45 32 -24 13 -169 118 -179 129 -3 4 -22 15 -43 26 -21
11 -55 35 -75 52 -20 18 -43 33 -49 33 -7 0 -13 4 -13 9 0 5 -8 12 -18 15 -10
4 -27 14 -38 24 -10 9 -31 23 -47 31 -15 8 -39 27 -55 42 -15 16 -33 29 -39
29 -7 0 -13 5 -13 10 0 6 -5 10 -11 10 -6 0 -42 23 -80 50 -38 28 -71 50 -74
50 -3 0 -16 10 -28 23 -12 12 -38 30 -57 40 -19 9 -55 33 -80 52 -90 71 -103
80 -129 94 -14 7 -47 31 -73 52 -26 22 -51 39 -57 39 -6 0 -11 5 -11 10 0 6
-6 10 -12 10 -11 0 -29 13 -85 60 -7 5 -15 10 -19 10 -4 0 -30 17 -58 39 -28
21 -65 46 -83 55 -17 8 -33 19 -35 24 -4 11 -144 110 -173 124 -14 6 -25 15
-25 20 0 4 -6 8 -14 8 -8 0 -16 3 -18 8 -4 10 -84 72 -93 72 -4 0 -55 35 -113
78 -59 42 -114 82 -123 87 -42 26 -104 71 -107 78 -2 4 -8 7 -13 7 -6 0 -20 9
-32 21 -12 11 -35 28 -52 36 -27 14 -132 89 -145 103 -3 3 -22 16 -42 28 l-38
21 0 -52z"/>
<path d="M1861 7474 c0 -11 3 -14 6 -6 3 7 2 16 -1 19 -3 4 -6 -2 -5 -13z"/>
<path d="M6595 7224 c-272 -16 -520 -30 -870 -49 -997 -54 -1219 -67 -1455
-80 -146 -8 -560 -31 -920 -50 -693 -38 -970 -65 -970 -95 0 -25 94 -25 2410
10 338 5 955 14 1371 20 l755 11 67 -39 c36 -21 95 -47 131 -56 64 -18 66 -18
133 5 65 21 106 41 158 75 26 17 -28 18 2495 -21 2004 -31 2070 -31 2070 -5 0
29 -277 57 -890 90 -622 33 -778 42 -1170 65 -146 8 -555 31 -910 50 -608 33
-944 51 -1383 75 -104 6 -197 8 -208 5 -11 -4 -29 -25 -40 -48 -27 -54 -56
-85 -99 -107 -110 -57 -224 -19 -286 95 -15 28 -32 53 -38 57 -14 10 -82 8
-351 -8z"/>
<path d="M4161 6529 c-30 -18 -49 -21 -150 -20 -103 1 -122 -2 -168 -23 -56
-27 -104 -69 -127 -114 -38 -74 -27 -173 25 -224 27 -27 34 -30 86 -26 48 2
58 0 61 -14 4 -21 -74 -177 -93 -185 -18 -6 -20 -29 -2 -35 19 -7 142 -2 156
6 7 5 10 14 7 22 -6 15 37 138 55 161 7 7 32 13 60 13 l48 0 -25 -61 c-31 -77
-45 -98 -66 -105 -21 -6 -24 -30 -5 -36 19 -7 142 -2 156 6 7 5 10 15 6 24 -9
24 54 171 81 189 18 11 22 21 18 39 -9 37 128 337 162 357 19 11 18 33 -2 41
-19 7 -50 -8 -89 -45 -16 -15 -48 -34 -70 -41 -30 -10 -40 -19 -38 -33 1 -11
-19 -73 -45 -137 l-46 -118 -46 0 c-26 0 -49 3 -52 6 -3 3 16 53 44 112 79
171 100 211 114 216 19 7 18 32 -2 40 -20 8 -14 9 -53 -15z m-163 -91 c24 -24
12 -70 -55 -220 -28 -63 -42 -75 -35 -30 5 37 -18 58 -47 42 -24 -12 -55 0
-65 26 -24 64 22 154 94 183 35 14 94 13 108 -1z"/>
<path d="M7915 6540 c-96 -15 -147 -69 -153 -166 -4 -52 -1 -65 17 -83 46 -46
114 -39 137 14 20 49 18 58 -10 51 -57 -14 -75 57 -27 105 36 35 94 39 156 10
38 -18 38 -19 13 -20 -20 -1 -28 -6 -28 -19 0 -10 -10 -49 -23 -87 -22 -63
-26 -70 -58 -78 -43 -11 -59 -24 -59 -48 0 -21 20 -25 38 -7 6 6 14 9 17 6 10
-10 -14 -57 -35 -68 -15 -8 -19 -17 -14 -34 3 -15 -4 -42 -19 -72 -13 -27 -28
-60 -32 -74 -9 -27 -28 -50 -44 -50 -12 0 -15 -29 -3 -31 4 -1 40 -2 80 -3 72
-2 102 9 88 33 -11 17 47 152 77 180 21 19 26 32 22 50 -5 21 -4 23 17 16 95
-31 158 -5 158 65 0 31 -5 43 -25 56 -14 9 -27 15 -28 13 -1 -2 -7 -13 -13
-23 -10 -19 -63 -41 -73 -31 -5 6 48 136 63 152 9 10 20 9 51 -2 52 -19 153
-19 197 0 42 17 98 78 98 106 0 16 -4 19 -17 14 -79 -34 -98 -36 -176 -26 -43
6 -115 19 -160 30 -94 22 -174 29 -232 21z"/>
<path d="M9305 6488 c-10 -6 -33 -14 -50 -18 -24 -5 -31 -12 -36 -40 -11 -66
-36 -110 -61 -110 -18 0 -27 -8 -36 -33 -16 -43 -15 -50 3 -43 28 10 7 -66
-24 -90 -10 -8 -15 -39 -18 -102 -4 -87 -3 -93 21 -117 57 -57 126 -17 201
117 25 44 45 82 45 84 0 2 -12 4 -28 4 -22 0 -31 -8 -50 -44 -13 -24 -35 -54
-48 -67 l-24 -22 0 37 c0 26 7 44 26 63 17 17 22 29 16 35 -7 7 -5 25 6 54 12
33 22 44 41 46 18 2 31 13 43 38 15 33 15 35 -3 38 -10 2 -19 7 -19 12 0 24
50 119 70 133 12 8 19 20 15 26 -8 14 -65 14 -90 -1z"/>
<path d="M7329 6355 c-33 -18 -68 -64 -107 -141 -17 -34 -38 -64 -47 -68 -11
-4 -14 -12 -10 -26 7 -24 -48 -194 -99 -305 -18 -39 -49 -87 -69 -106 -21 -20
-37 -41 -37 -48 0 -18 38 -13 78 12 47 29 116 57 143 57 17 0 19 4 13 35 -4
26 4 67 31 157 49 164 50 166 50 109 0 -34 6 -55 19 -70 26 -28 76 -28 104 2
22 23 102 156 102 169 0 5 -11 8 -24 8 -19 0 -34 -13 -61 -54 -47 -70 -65 -78
-65 -27 0 27 7 44 25 61 31 29 33 66 5 75 -12 4 -28 1 -36 -6 -26 -21 -26 -2
0 48 14 26 25 43 26 36 0 -16 29 -43 46 -43 24 0 54 38 54 70 0 60 -77 90
-141 55z"/>
<path d="M8920 6318 c-46 -16 -61 -18 -96 -8 -30 9 -51 9 -81 1 -53 -15 -83
-39 -127 -105 -20 -30 -40 -56 -45 -58 -5 -2 -6 -39 -3 -89 8 -101 26 -135 76
-144 44 -9 69 0 111 36 l33 29 6 -24 c7 -30 54 -50 95 -41 37 8 87 65 130 151
17 34 31 64 31 68 0 3 -10 6 -22 6 -17 -1 -34 -17 -63 -62 -48 -74 -65 -83
-65 -36 0 24 8 42 26 58 18 18 23 31 19 47 -6 25 42 129 69 152 12 11 14 17 5
27 -14 18 -30 16 -99 -8z m-112 -113 c3 -31 -1 -42 -19 -56 -19 -14 -21 -20
-11 -32 10 -11 5 -23 -24 -61 -42 -55 -67 -58 -72 -9 -3 25 3 39 23 57 21 20
25 29 17 43 -12 21 7 64 40 87 32 22 43 15 46 -29z"/>
<path d="M10501 6323 c-19 -8 -55 -14 -80 -13 -26 0 -65 1 -88 2 -54 1 -99
-26 -140 -82 -17 -25 -41 -55 -51 -67 -18 -19 -19 -31 -13 -105 8 -101 25
-134 77 -144 41 -8 96 13 115 45 12 18 14 17 46 -16 29 -32 37 -35 70 -30 45
7 91 55 141 147 38 71 39 80 10 80 -17 0 -34 -18 -66 -65 -23 -36 -47 -65 -52
-65 -20 0 -10 59 16 89 15 19 23 38 20 48 -7 21 49 144 70 156 12 7 13 12 3
23 -14 17 -34 17 -78 -3z m-133 -117 c3 -29 -1 -42 -17 -52 -15 -11 -19 -22
-15 -43 5 -22 -1 -35 -30 -65 -40 -44 -60 -43 -64 2 -2 23 4 38 23 57 19 20
23 30 16 43 -11 20 9 64 41 86 31 22 42 15 46 -28z"/>
<path d="M5135 6318 c-64 -22 -76 -28 -73 -40 4 -22 -24 -92 -47 -118 -19 -22
-22 -35 -21 -118 1 -86 3 -95 25 -113 13 -10 34 -19 48 -19 32 0 80 26 93 50
14 27 27 25 34 -5 8 -33 45 -49 90 -41 25 5 45 19 69 49 37 47 81 120 91 155
6 18 4 22 -16 22 -19 0 -34 -15 -66 -65 -23 -36 -46 -65 -52 -65 -20 0 -10 59
16 89 17 20 23 37 19 50 -7 23 46 135 71 149 20 11 10 32 -16 32 -22 0 -125
-26 -141 -35 -6 -4 -8 -13 -5 -21 7 -19 -27 -95 -53 -118 -12 -11 -19 -26 -16
-36 9 -29 -64 -124 -82 -106 -10 10 18 82 37 94 14 9 19 19 15 35 -8 30 49
157 69 157 10 0 13 6 10 15 -7 17 -53 18 -99 3z"/>
<path d="M9560 6315 c-40 -10 -46 -15 -51 -46 -7 -43 -35 -98 -62 -119 -15
-13 -18 -21 -10 -35 7 -12 7 -30 1 -52 -34 -122 75 -202 154 -113 31 34 38 37
38 16 0 -8 12 -24 27 -36 35 -28 85 -21 123 15 l26 25 27 -30 c62 -69 145 -16
226 147 26 53 26 53 -3 53 -18 0 -33 -15 -65 -65 -23 -36 -49 -65 -57 -65 -17
0 -17 4 -4 52 6 21 20 43 31 49 15 8 19 17 15 34 -7 26 32 123 58 144 44 37
-4 53 -88 29 -53 -15 -63 -23 -64 -51 0 -32 -27 -89 -51 -111 -13 -12 -19 -27
-16 -40 5 -22 -40 -96 -62 -104 -24 -7 -14 55 13 87 15 19 23 38 20 48 -7 21
43 131 67 152 37 30 -11 40 -93 18 -57 -15 -70 -24 -64 -42 8 -19 -32 -105
-56 -122 -13 -9 -18 -22 -15 -36 5 -23 -39 -97 -62 -105 -24 -7 -14 55 13 87
15 19 23 38 20 48 -6 19 44 136 63 147 6 4 11 14 11 22 0 17 -44 17 -110 -1z"/>
<path d="M4648 6291 c-27 -17 -57 -48 -73 -75 -15 -26 -35 -52 -45 -59 -15
-11 -16 -23 -10 -100 6 -78 10 -92 34 -115 25 -26 31 -27 136 -27 107 0 109 0
140 30 29 28 120 169 120 187 0 5 -12 8 -28 8 -22 0 -31 -8 -50 -44 -13 -24
-35 -55 -49 -68 l-25 -23 21 40 c11 22 21 45 21 52 0 7 7 16 16 21 13 7 14 13
5 30 -6 11 -11 35 -11 52 0 42 -24 96 -48 109 -39 21 -105 13 -154 -18z m106
-67 c12 -31 6 -62 -15 -76 -19 -12 -20 -16 -8 -36 12 -19 10 -25 -17 -59 -21
-25 -39 -38 -55 -38 -21 0 -24 5 -27 42 -3 34 1 44 18 53 17 9 20 17 15 37
-12 50 71 123 89 77z"/>
<path d="M5552 6295 c-20 -17 -41 -53 -61 -106 -17 -44 -31 -83 -31 -85 0 -9
47 -3 56 6 8 8 15 6 24 -5 11 -13 9 -15 -9 -15 -64 0 -96 -106 -47 -155 50
-50 150 -42 205 17 16 17 47 66 70 109 l42 79 -28 0 c-24 0 -33 -7 -47 -37
-18 -36 -19 -37 -27 -15 -5 12 -6 29 -2 38 4 10 -1 17 -16 21 -20 5 -20 6 9
33 38 36 40 81 5 115 -34 35 -102 35 -143 0z m38 -290 c-7 -8 -24 -15 -39 -15
l-26 0 25 13 c14 7 27 23 29 37 l3 25 11 -22 c7 -16 6 -27 -3 -38z"/>
<path d="M6005 6306 c-43 -19 -90 -61 -117 -104 -12 -20 -31 -44 -42 -53 -15
-13 -17 -19 -7 -37 6 -11 11 -39 11 -62 0 -55 26 -96 75 -120 100 -49 185 -6
269 134 20 33 36 63 36 68 0 4 -11 8 -24 8 -17 0 -31 -11 -47 -36 -45 -74
-149 -120 -187 -82 -20 20 -13 28 14 17 18 -6 37 -6 58 1 35 12 119 87 111 99
-2 5 -1 28 3 52 10 51 0 99 -25 116 -22 17 -90 16 -128 -1z m85 -106 c0 -50
-61 -94 -76 -55 -4 8 -1 22 6 30 10 12 9 15 -6 15 -17 1 -16 3 5 20 13 11 34
20 47 20 20 0 24 -5 24 -30z"/>
<path d="M6668 6300 c-20 -11 -49 -37 -64 -57 -15 -21 -40 -54 -54 -73 -26
-34 -27 -39 -20 -115 11 -130 32 -146 187 -142 87 2 94 4 124 32 28 28 119
169 119 187 0 5 -11 8 -25 8 -19 0 -32 -13 -59 -54 -30 -47 -56 -76 -56 -63 0
15 42 96 52 99 8 3 8 9 -1 25 -6 12 -11 36 -11 53 0 42 -24 96 -48 109 -32 17
-103 12 -144 -9z m96 -76 c12 -31 6 -62 -16 -76 -19 -13 -21 -18 -10 -31 11
-12 11 -21 1 -39 -20 -40 -52 -68 -76 -68 -20 0 -23 5 -23 43 0 32 5 45 21 55
16 10 19 19 14 39 -12 50 71 123 89 77z"/>
<path d="M5290 4795 l0 -225 125 0 125 0 0 30 0 30 -95 0 -95 0 0 195 0 195
-30 0 -30 0 0 -225z"/>
<path d="M8280 4794 l0 -226 113 4 c117 4 154 15 205 62 89 81 82 258 -13 331
-55 41 -108 55 -211 55 l-94 0 0 -226z m230 144 c107 -54 120 -201 24 -274
-32 -25 -48 -29 -116 -33 l-78 -3 0 166 0 166 63 0 c45 0 75 -6 107 -22z"/>
<path d="M8713 4984 c-8 -21 9 -48 32 -53 26 -5 47 26 34 50 -12 23 -57 25
-66 3z"/>
<path d="M12321 4924 c0 -11 3 -14 6 -6 3 7 2 16 -1 19 -3 4 -6 -2 -5 -13z"/>
<path d="M5641 4848 c-58 -30 -84 -76 -78 -139 11 -133 172 -188 261 -90 19
21 19 22 0 36 -24 18 -29 18 -45 -1 -43 -52 -149 -27 -149 35 0 7 39 11 110
11 l110 0 0 33 c0 17 -9 46 -20 64 -42 69 -117 89 -189 51z m129 -60 c11 -12
20 -25 20 -30 0 -4 -36 -8 -80 -8 -63 0 -80 3 -80 14 0 45 104 62 140 24z"/>
<path d="M5964 4860 c-17 -5 -38 -18 -48 -28 -15 -17 -15 -21 -1 -32 11 -9 22
-9 46 -1 45 15 85 14 103 -5 25 -24 19 -34 -21 -34 -129 0 -196 -88 -124 -161
24 -23 38 -29 73 -29 24 0 53 7 65 15 19 13 22 13 27 0 3 -8 17 -15 31 -15 25
0 25 0 25 93 0 110 -13 162 -45 183 -30 20 -90 26 -131 14z m116 -169 c0 -10
-8 -29 -18 -40 -29 -37 -112 -26 -112 15 0 20 50 43 93 44 30 0 37 -4 37 -19z"/>
<path d="M6220 4720 l0 -150 30 0 30 0 0 95 c0 88 2 98 25 120 14 15 36 25 53
25 24 0 31 5 34 24 8 38 -34 48 -86 21 -35 -18 -36 -18 -36 0 0 9 -9 15 -25
15 l-25 0 0 -150z"/>
<path d="M6420 4720 l0 -150 30 0 30 0 0 94 c0 79 3 97 21 120 15 19 30 26 54
26 53 0 65 -26 65 -142 l0 -98 31 0 31 0 -4 114 c-2 97 -6 119 -24 143 -29 39
-81 51 -133 31 -33 -13 -41 -14 -45 -2 -3 8 -17 14 -31 14 l-25 0 0 -150z"/>
<path d="M6890 4862 c0 -4 25 -68 56 -142 51 -125 54 -138 44 -172 -12 -42
-42 -68 -71 -61 -16 4 -19 0 -19 -26 0 -29 2 -31 36 -31 45 0 70 14 88 48 18
35 156 377 156 386 0 4 -14 6 -32 4 -31 -3 -34 -7 -72 -107 l-40 -104 -40 106
c-40 105 -41 107 -73 107 -18 0 -33 -3 -33 -8z"/>
<path d="M7283 4851 c-108 -50 -109 -209 -2 -263 101 -52 229 19 229 126 0
115 -119 187 -227 137z m142 -73 c63 -74 -9 -178 -102 -147 -64 21 -83 101
-34 150 43 42 99 41 136 -3z"/>
<path d="M7570 4761 c0 -64 5 -121 12 -136 23 -51 100 -70 158 -40 27 14 30
14 30 0 0 -10 10 -15 30 -15 l31 0 -3 148 -3 147 -27 3 -28 3 0 -95 c0 -85 -2
-98 -23 -122 -26 -30 -77 -37 -100 -15 -7 7 -14 55 -17 119 l-5 107 -27 3 -28
3 0 -110z"/>
<path d="M7910 4720 l0 -150 30 0 30 0 0 95 c0 88 2 98 25 120 15 16 36 25 55
25 25 0 30 4 30 25 0 15 -7 28 -16 32 -15 6 -29 2 -86 -22 -13 -5 -18 -2 -18
9 0 10 -9 16 -25 16 l-25 0 0 -150z"/>
<path d="M8720 4721 l0 -151 30 0 31 0 -3 148 -3 147 -27 3 -28 3 0 -150z"/>
<path d="M8850 4720 l0 -150 30 0 30 0 0 94 c0 79 3 97 21 120 14 18 30 26 52
26 58 0 62 -9 65 -130 l4 -110 30 0 30 0 -3 114 c-4 97 -7 119 -25 143 -28 38
-83 50 -134 30 -33 -13 -39 -13 -44 -1 -3 8 -17 14 -31 14 l-25 0 0 -150z"/>
<path d="M11581 2894 c0 -11 3 -14 6 -6 3 7 2 16 -1 19 -3 4 -6 -2 -5 -13z"/>
</g>
</svg>
